<?xml version="1.0" encoding="iso-8859-1"?>
<!-- Uploaded to: SVG Repo, www.svgrepo.com, Generator: SVG Repo Mixer Tools -->
<svg fill="#5f6368" version="1.1" id="Layer_1" xmlns="http://www.w3.org/2000/svg" xmlns:xlink="http://www.w3.org/1999/xlink" 
	 viewBox="0 0 512 512" xml:space="preserve">
<g>
	<g>
		<g>
			<path d="M391.912,348.26c-17.558,0-31.842,14.286-31.842,31.844c0,17.558,14.285,31.843,31.842,31.843
				c17.558,0,31.844-14.284,31.844-31.843C423.756,362.544,409.47,348.26,391.912,348.26z M391.912,396.268
				c-8.914,0-16.166-7.251-16.166-16.166c0-8.915,7.252-16.167,16.166-16.167s16.167,7.253,16.167,16.167
				S400.826,396.268,391.912,396.268z"/>
			<path d="M119.861,348.26c-17.559,0-31.844,14.286-31.844,31.844c0,17.558,14.286,31.843,31.844,31.843
				c17.558,0,31.843-14.284,31.843-31.843C151.703,362.544,137.42,348.26,119.861,348.26z M119.861,396.268
				c-8.915,0-16.167-7.251-16.167-16.166c0-8.915,7.253-16.167,16.167-16.167c8.914,0,16.166,7.253,16.166,16.167
				S128.776,396.268,119.861,396.268z"/>
			<rect x="87.852" y="292.252" width="16.004" height="15.677"/>
			<rect x="63.846" y="292.252" width="16.004" height="15.677"/>
			<rect x="39.84" y="292.252" width="16.003" height="15.677"/>
			<rect x="415.913" y="292.252" width="24.004" height="15.677"/>
			
				<rect x="432.077" y="192.753" transform="matrix(0.7071 0.7071 -0.7071 0.7071 273.1477 -251.2973)" width="15.677" height="22.632"/>
			
				<rect x="421.142" y="218.229" transform="matrix(-0.7071 0.7071 -0.7071 -0.7071 941.5718 62.1237)" width="73.554" height="15.677"/>
			
				<rect x="276.049" y="192.75" transform="matrix(0.7071 0.7071 -0.7071 0.7071 227.4438 -140.9691)" width="15.677" height="22.632"/>
			
				<rect x="265.117" y="218.229" transform="matrix(-0.7071 0.7071 -0.7071 -0.7071 675.2204 172.45)" width="73.554" height="15.677"/>
			
				<rect x="96.016" y="192.747" transform="matrix(0.7071 0.7071 -0.7071 0.7071 174.7126 -13.667)" width="15.677" height="22.632"/>
			
				<rect x="85.081" y="218.235" transform="matrix(-0.7071 0.7071 -0.7071 -0.7071 367.8825 299.7639)" width="73.554" height="15.677"/>
			<path d="M511.773,348.919V132.218h-40.008v-32.17h-15.677v32.17h-224.37v-8.327h16.166v-15.677H23.842v15.677h16.166v8.327H0
				v255.724h64.573c3.824,27.095,27.153,48.009,55.286,48.009s51.462-20.914,55.286-48.009h161.479
				c3.824,27.095,27.153,48.009,55.286,48.009s51.462-20.914,55.286-48.009h64.573v-23.345l0.098,0.001l0.13-15.676L511.773,348.919
				z M55.685,123.889h160.358v8.328H55.685V123.889z M15.677,147.895h480.42v16.329h-104.02v80.016h-24.331v-80.016H216.042v80.016
				H191.71v-80.016H40.008v80.016H15.677V147.895z M496.097,179.9v88.343h-88.343V179.9H496.097z M352.067,179.9v88.343H231.718
				V179.9H352.067z M176.035,179.9v88.343H55.685V179.9H176.035z M64.573,372.264H15.677v-7.667h50.543
				C65.498,367.087,64.943,369.646,64.573,372.264z M119.861,420.273c-22.15,0-40.171-18.021-40.171-40.171
				s18.021-40.171,40.171-40.171c22.15,0,40.171,18.021,40.171,40.171C160.031,402.252,142.01,420.273,119.861,420.273z
				 M336.627,372.264H175.146c-0.402-2.85-1.017-5.632-1.833-8.328H338.46C337.643,366.632,337.028,369.414,336.627,372.264z
				 M391.912,420.273c-22.15,0-40.171-18.021-40.171-40.171s18.021-40.171,40.171-40.171s40.171,18.021,40.171,40.171
				S414.062,420.273,391.912,420.273z M391.912,324.255c-18.965,0-35.742,9.51-45.841,24.004h-180.37
				c-10.099-14.494-26.876-24.004-45.841-24.004c-19.256,0-36.266,9.796-46.311,24.666H15.677v-89.005h24.331v24.004h151.703
				v-24.004h24.331v24.004h151.702v-24.004h24.331v24.004h104.02v8.328h-40.008v47.683h40.008v8.858l-58.308-0.482
				C427.694,333.787,410.899,324.255,391.912,324.255z M496.097,307.924v16.33h-24.331v-16.33H496.097z M496.098,372.264h-0.001
				H447.2c-0.397-2.811-1.001-5.555-1.802-8.217l50.7,0.419V372.264z"/>
			<rect x="456.088" y="76.049" width="15.677" height="16.003"/>
		</g>
	</g>
</g>
</svg>