<?xml version="1.0" encoding="utf-8"?>
<!-- Uploaded to: SVG Repo, www.svgrepo.com, Generator: SVG Repo Mixer Tools -->
<!DOCTYPE svg PUBLIC "-//W3C//DTD SVG 1.1//EN" "http://www.w3.org/Graphics/SVG/1.1/DTD/svg11.dtd">
<svg fill="#5f6368" width="800px" height="800px" viewBox="0 0 1000 1000" version="1.1" xmlns="http://www.w3.org/2000/svg" xmlns:xlink="http://www.w3.org/1999/xlink"  enable-background="new 0 0 1000 1000" xml:space="preserve">

<g>

<g transform="translate(0.000000,512.000000) scale(0.100000,-0.100000)">

<path d="M2704.2,4987.1c-34.5-34.5-36.4-57.4-28.7-245.1c24.9-505.5,34.5-988,23-1020.6c-24.9-68.9-95.7-65.1-245.1,9.6c-130.2,65.1-139.8,67-183.8,38.3c-24.9-15.3-46-46-46-67c0-21.1,55.5-302.5,124.5-626.1l124.5-585.9v-547.6c0-616.6,7.7-668.2,134-1028.2c95.7-270,141.7-365.7,281.5-582.1c130.2-201,442.3-513.2,631.9-631.9c135.9-84.3,137.9-88.1,128.3-153.2c-24.9-166.6-1.9-153.2-245.1-153.2c-425.1,0-714.2-99.6-955.5-329.3c-149.4-143.6-1083.7-1372.9-1166.1-1535.6c-109.1-214.4-130.2-352.3-130.2-825.2c0-356.1,5.7-448.1,36.4-568.7c72.8-283.4,229.8-518.9,453.8-677.8c116.8-84.3,310.2-178.1,367.6-180c17.2,0,23,99.6,23,430.8c0,392.5,3.8,438.5,38.3,505.5c49.8,97.6,176.2,162.8,279.6,143.6c91.9-17.2,193.4-107.2,218.3-195.3c9.6-38.3,19.2-266.2,19.2-505.5V-4780h1866.9h1866.9v436.6c0,239.3,9.6,467.2,19.1,505.5c24.9,88.1,126.4,178.1,220.2,195.3c97.6,19.2,229.8-49.8,279.6-141.7c32.6-59.4,36.4-113,36.4-528.5v-461.5l109.1,17.2c444.2,68.9,838.7,436.6,953.5,886.5c42.1,164.7,40.2,961.2-1.9,1127.8c-42.1,166.6-124.5,327.4-241.3,474.9l-101.5,126.4l-229.8-9.6c-277.7-13.4-450,11.5-704.6,97.6c-459.5,157-827.2,486.3-1049.3,940.1c-136,279.6-178.1,472.9-176.2,804.2c0,224,7.6,298.7,49.8,451.9c49.8,191.5,160.9,432.7,266.2,585.9c162.8,239.3,513.1,532.3,748.7,629.9c74.7,30.6,91.9,47.9,101.5,95.7c5.8,32.5,7.7,446.1,1.9,919.1c-7.7,942-7.7,944-130.2,1194.8c-84.3,170.4-325.5,411.7-495.9,494C5741,4177.2,5698.9,4181,4866,4182.9h-756.3L3937.3,4405c-93.8,122.5-191.5,233.6-214.5,248.9c-55.5,36.4-111,5.7-149.3-80.4c-24.9-63.2-51.7-78.5-122.5-67c-15.3,1.9-122.5,82.3-239.3,180C2771.2,5052.2,2769.3,5052.2,2704.2,4987.1z"/>

<path d="M7010.5,1197.8c-30.6-24.9-49.8-72.8-68.9-178.1c-13.4-76.6-24.9-168.5-24.9-199.1c-1.9-51.7-11.5-61.3-101.5-93.8c-70.8-24.9-101.5-28.7-107.2-13.4c-3.8,13.4-63.2,65.1-132.1,116.8c-183.8,139.8-222.1,134-402.1-44c-172.3-174.2-178.1-210.6-61.3-396.4c44-68.9,90-130.2,105.3-139.8c19.1-11.5,13.4-38.3-30.6-134L6129.7-2.7l-189.6-28.7c-103.4-17.2-202.9-42.1-220.2-55.5c-45.9-38.3-45.9-482.5,0-520.8c17.2-13.4,113-44,212.6-65.1l181.9-40.2l51.7-124.5l51.7-122.5l-63.2-95.7c-36.4-51.7-82.3-132.1-103.4-176.2c-49.8-103.4-36.4-130.2,147.4-300.6c174.3-160.8,197.2-160.8,384.9-19.1l143.6,107.2l88.1-38.3l90-40.2l28.7-170.4c40.2-247,49.8-252.7,315.9-252.7c145.5,0,224,7.6,247,24.9c22.9,17.2,49.8,90,76.6,214.5l42.1,187.6l97.7,36.4l95.7,38.3l149.3-97.7c82.3-53.6,168.5-97.6,193.4-97.6c42.1,0,201,124.5,310.2,243.2c68.9,74.7,55.5,151.3-53.6,312.1l-97.7,139.8l45.9,114.9l46,116.8l166.6,32.5c266.1,55.5,279.6,72.8,279.6,333.2c0,178.1-19.2,247-74.7,275.7C8754.8-60.2,8661-41,8567.1-27.6l-170.4,23L8347,116c-40.2,95.7-44,124.5-24.9,139.8c15.3,11.5,61.3,76.6,107.2,145.5c118.7,183.8,113,214.4-72.8,386.8c-114.9,105.3-160.8,137.9-204.9,137.9c-57.4,0-262.3-120.6-325.5-189.6c-30.6-34.5-36.4-34.5-122.5-1.9c-57.4,21.1-91.9,47.9-95.7,68.9c-32.5,225.9-70.8,358.1-114.9,392.5C7426,1247.6,7075.6,1249.5,7010.5,1197.8z M7500.6,87.3c306.3-157,384.9-553.4,155.1-802.3c-97.7-105.3-199.1-158.9-327.4-172.3c-210.6-21.1-404,84.3-503.6,277.6c-72.7,141.7-82.3,266.2-30.6,415.5c40.2,118.7,178.1,260.4,294.9,302.5C7201.9,150.5,7397.3,140.9,7500.6,87.3z"/>

</g>

</g>
</svg>